<svg xmlns="http://www.w3.org/2000/svg" viewBox="0 0 240 30">
<!-- SVG created with Arrow, by QuiverAI (https://quiver.ai) -->
  <style type="text/css">.cls-0 {fill:#002050;}
.cls-1 {fill:#005ADB;}
.cls-2 {fill:#FFFFFF;}
.cls-3 {fill:#002657;}
.cls-4 {fill:#035AD4;}</style>
  <path class="cls-0" d="m31.9 2.7h-17.6c-4.9 0-8.4 3.1-8.7 8.5-0.3 5.2 3 6.1 7.4 6.1l5.4-0.1-5.2 2.1c-3.9 1.7-4.2 1.9-9 1.9l-1.7 5.4c4.4-2.4 10.8-5.7 16.1-8 2.8-1.2 7.2-3.2 11.3-4.6-0.5-1.9-1.4-3.1-3.3-3.1h-11.5c-1.4 0-2.2-0.1-2.2-1.1 0.2-1.1 1.1-1.2 2.2-1.2h15l1.8-5.9z"/>
  <path class="cls-0" d="m3.3 26.6 25.5-9.1-1.6 4.4c-1.1 3.2-3.6 4.7-7.8 4.7h-16.8 0.7z"/>
  <path class="cls-1" d="m55.6 2.6-4.9 15.1c-0.7 2.2-2.3 3.1-4.6 3.1h-3.1c-1.7-0.1-2.4-0.7-1.9-2.3l1.9-5.8-1.8 0.5-10.7 3.6-1.2 4.2c-0.8 3.7 1.6 5.6 7.1 5.6h12.7c5.3 0 9-1.9 10.5-6.8l5.2-17.2h-9.2z"/>
  <path class="cls-1" d="m34.1 2.6-3.4 11c4.1-1.1 7.9-1.8 12.7-2.3l3-8.7h-12.3z"/>
  <path class="cls-2" d="m2.5 26.6c6.2-3.2 18.8-9.1 27.4-12.3 4.7-1.5 11.3-3 16.8-3.4l-0.2 0.5c-2 0.7-15.6 5-44 15.2z"/>
  <path class="cls-0" d="m85.4 7.6 0.4-1.2 0.1-0.5v-0.1l0.4-2.1c-1.8 0-4.8-0.1-8.6-0.1-4.1 0-7.6 2-8.8 6.4-1.1 6.7 5.7 4.9 8.1 6.1 2.4 1 0.1 3.1-1.7 3.1h-8.7l-1.1 3.7h9.5c5.2 0 7.6-1.6 8.4-5.4 1.9-6.9-4-5.9-7.4-6.9-1.1-0.4-1.5-2.5 1.3-3 1.1-0.2 4.5 0 7.2 0.1l0.9-0.1z"/>
  <path class="cls-3" d="m95.4 9.1c-2 0-3.2 0.3-4.7 1.7l0.4-1.4h-4.7l-5.3 18.1h5.5l1.4-5.5c1.1 1.2 2.3 1.2 4 1.2 3.8-0.2 5.9-1.8 7-5.9 1.3-4.9 0.6-8.2-3.6-8.2zm-1.5 7c-0.5 2.2-1.4 3.8-3.3 3.8-1.7 0-1.8-1.5-1-4.1 0.5-1.9 1.5-3.4 3.1-3.3 1.9 0.2 1.6 2.1 1.2 3.6z"/>
  <path class="cls-0" d="m110.6 9.1h-2.4c-4.9 0.1-6.9 2.5-7.9 6.4-1.4 5 0.1 7.5 5.1 7.6h1c5.2-0.1 7.5-1.8 8.5-5.7 1.5-4.9 0.4-8.2-4.3-8.3zm-0.5 7.3c-0.5 2.3-1.7 3.5-3.6 3.5-2.2 0-2.2-1.5-1.5-4.1 0.5-1.9 1.6-3.4 3.5-3.4 2.2 0.1 2.1 1.9 1.6 4z"/>
  <path class="cls-0" d="m127.1 9.1c-1.6 0.1-3.3 1-4.6 2.5l0.4-2.2h-4.6l-3.5 13.6h5l1.8-6.6c0.4-1.8 2.6-3.1 4.8-2.7l0.6 0.1 0.5-2.3 0.1-0.7 0.1-0.4h-0.1l0.1-0.4v-0.1l0.1-0.7-0.7-0.1z"/>
  <path class="cls-0" d="m135 9.4 1.3-5-5.2 0.8-1.2 4.2h-1.7l-0.9 3.4h1.6l-1.5 5.6c-0.8 3.8 0.5 4.6 3.9 4.6l3.7-0.1 0.9-3.3c-3 0.5-4 0.4-3.2-2.2l1.4-4.6h3.7l0.9-3.4h-3.7z"/>
  <path class="cls-1" d="m154.1 3.6-3.4 12.4c-0.8 2.4-1.6 3.2-3.8 3.2-2.6 0-3.1-1.1-2.4-3.7l3.2-11.9h-5.1l-3.6 12.4c-1.4 5.3 0.1 7.1 6.2 7.1 5.5 0 8.9-1.1 10.2-5.6l3.8-13.9h-5.1z"/>
  <path class="cls-4" d="m169 9c-2.1 0.2-2.9 0.7-4.6 2.2v0.1-0.1l0.1-1.8h-5.2l-3.4 13.6h5.2l1.8-7.2c0.4-1.7 1.6-3 3-3.2 1.7-0.1 1.7 1.3 1.2 3.2l-2.2 7.2h5l2.5-9.1c0.9-3.5-1-5-3.4-4.9z"/>
  <polygon class="cls-4" points="175.9 9.4 171.8 22.9 177.1 22.9 181.1 9.4"/>
  <polygon class="cls-4" points="177.8 3.6 176.5 7.3 181.6 7.3 182.7 3.6"/>
  <path class="cls-4" d="m190.7 3.6c-4.1 0-5.6 1.3-6.6 5.8h-2.1l-0.9 3.4h1.9l-3.1 10.2h5.2l2.7-10.2h2.5l0.9-3.4h-2.5c0.4-1.8 1.1-2.7 3.3-2.3l0.9-3.5h-2.2z"/>
  <path class="cls-4" d="m200.4 9.1h-1.8c-5 0-7.3 2-8.5 6.3-1.5 5-0.5 7.6 5 7.7h0.9c5.1-0.3 7.6-1.5 8.9-5.8 1.5-4.8 0.8-8.1-4.5-8.2zm-0.2 6.9c-0.6 2.5-1.2 4-3.7 4-2.4 0-2.5-1.3-1.6-4.2 0.5-1.9 1.5-3.5 3.5-3.5 2.2 0 2.3 1.8 1.8 3.7z"/>
  <path class="cls-4" d="m217.5 9.2c-2.1-0.5-4 0.5-4.4 1.2l-0.7 1 1.1-2h-4.5l-3.6 13.6h5.1l1.6-6.6c0.9-2.5 3.1-3.3 4.8-2.7l1.2-4.5h-0.6z"/>
  <path class="cls-4" d="m234.6 9.1h-0.9c-1.3 0-2.6 0.7-3.8 1.8-0.4-1.1-1.3-1.8-2.9-1.8h-0.6c-1.3 0-2.4 0.6-3.3 1.4l-0.6 0.6 0.6-1.7h-4.1l-3.3 13.6h4.8l1.9-7.6c0.5-2 1.6-2.9 2.6-2.6 1.4 0.3 0.5 2.6-1.5 10.2h4.3l2.1-7.6c0.5-2 2-3 3-2.6 1 0.3 0.7 1.6-1.9 10.1l4.6 0.1 2-7.6c0.6-2.8 1-6-3-6.3z"/>
</svg>